<svg width="307" height="214" viewBox="0 0 307 214" fill="none" xmlns="http://www.w3.org/2000/svg">
<path fill-rule="evenodd" clip-rule="evenodd" d="M150.728 146.802C122.441 146.933 94.1537 147.065 65.8665 147.163C62.2854 147.163 59.0658 145.917 56.5032 143.36C54.6305 141.492 53.5792 139.262 53.4478 136.607C53.4149 135.984 53.382 135.362 53.382 134.739C53.4149 103.269 53.4149 71.7986 53.4806 40.3285C53.4806 38.9189 53.4149 37.5421 53.382 36.1653C53.3163 33.1822 53.7106 30.2649 54.8933 27.5113C57.2259 22.1677 61.2998 19.0207 66.9835 17.9391C68.3634 17.6766 69.7761 17.6113 71.156 17.6113C79.0738 17.6113 86.9915 17.7094 94.9093 17.7094C137.915 17.775 180.921 17.8405 223.926 17.9064C225.93 17.9064 227.935 17.8733 229.938 17.8733C235.031 17.9064 239.532 19.611 243.376 22.9216C245.708 24.9213 246.826 27.5766 247.187 30.5927C247.515 33.0511 247.614 35.5097 247.483 38.001C247.45 38.8861 247.483 39.7715 247.483 40.6891C247.45 72.1264 247.45 103.564 247.384 135.001C247.384 138.672 245.807 141.59 242.916 143.819C241.043 145.295 238.908 146.147 236.542 146.376C235.951 146.442 235.36 146.376 234.768 146.376C208.025 146.507 181.249 146.606 154.506 146.737C153.258 146.802 152.009 146.802 150.728 146.802Z" fill="#43444B"/>
<path fill-rule="evenodd" clip-rule="evenodd" d="M141.469 135.804C113.182 135.934 84.895 136.066 56.6078 136.164C53.0267 136.164 50.0783 135.189 47.516 132.632C45.643 130.764 44.5917 128.535 44.4606 125.88C44.4277 125.257 44.3949 124.634 44.3949 124.011C44.4277 92.5409 44.4277 61.0709 44.4934 29.6008C44.4934 28.1912 44.4277 26.8144 44.3949 25.4376C44.3289 22.4545 44.7234 19.537 45.9061 16.7833C48.2388 11.44 52.0411 8.56389 57.7246 7.48211C59.1044 7.21986 60.5171 7.1543 61.8973 7.1543C69.8151 7.1543 77.7328 7.25264 85.6506 7.25264C128.656 7.3182 171.662 7.38377 214.668 7.44933C216.672 7.44933 218.676 7.41628 220.68 7.41628C225.772 7.44933 230.273 8.88304 234.117 12.1939C236.45 14.1936 237.567 16.8489 237.928 19.8648C238.257 22.3234 238.355 24.782 238.224 27.2734C238.191 28.1584 238.224 29.0435 238.224 29.9614C238.191 61.3987 238.191 92.836 238.125 124.273C238.125 127.945 236.548 130.862 233.657 133.091C231.785 134.567 229.649 135.148 227.284 135.377C226.692 135.443 226.101 135.377 225.509 135.377C198.766 135.509 171.99 135.607 145.248 135.738C143.999 135.804 142.751 135.804 141.469 135.804Z" fill="#1B1C21"/>
<path fill-rule="evenodd" clip-rule="evenodd" d="M236.966 27.9259C236.998 27.6637 237.031 27.5 237.064 27.3031C237.228 24.5494 237.097 21.8286 236.637 19.1077C236.21 16.6491 235.093 14.5839 233.187 13.0104C229.508 9.96175 225.302 8.38851 220.506 8.45381C219.126 8.48659 217.746 8.51937 216.399 8.51937C174.379 8.45381 132.359 8.38851 90.3715 8.2899C80.9425 8.25712 71.5137 8.22434 62.0515 8.19156C60.8031 8.19156 59.5218 8.22434 58.3062 8.42103C52.8524 9.40474 48.9431 12.4206 46.8402 17.6001C45.5263 20.8124 45.3617 24.1233 45.7231 27.5325C45.756 27.7292 45.8217 27.9259 45.8874 28.1884C109.558 28.1229 173.196 28.0243 236.966 27.9259ZM45.5917 29.4996V30.6467V50.3158C45.5917 74.9017 45.5588 99.4877 45.5588 124.074C45.5588 124.991 45.5588 125.942 45.6903 126.827C46.1502 129.45 47.5958 131.416 49.7313 132.925C51.9985 134.498 54.5279 135.154 57.2548 135.121C81.1724 135.023 105.09 134.924 129.04 134.826C161.237 134.695 193.434 134.531 225.631 134.4C226.255 134.4 226.88 134.4 227.503 134.367C229.606 134.203 231.413 133.351 233.056 132.072C235.586 130.105 236.965 127.516 236.998 124.303C237.031 120.074 236.998 115.845 236.998 111.617C236.998 84.572 237.031 57.4949 237.031 30.45V29.2371C173.196 29.3027 109.46 29.401 45.5917 29.4996ZM141.558 136.072C113.271 136.203 84.9835 136.334 56.6963 136.432C53.0498 136.432 49.797 135.154 47.2015 132.466C45.4274 130.663 44.409 128.466 44.2775 125.909C44.2447 125.286 44.2118 124.664 44.2118 124.041C44.2447 92.5379 44.2447 61.035 44.3104 29.5325C44.3104 28.1229 44.2447 26.7461 44.2118 25.369C44.1464 22.4186 44.5404 19.5339 45.7231 16.813C48.0229 11.4372 52.1625 8.25712 57.879 7.20812C59.2589 6.94614 60.6716 6.91309 62.0515 6.91309C69.9364 6.91309 77.8213 7.0117 85.7063 7.0117C128.745 7.07699 171.784 7.14256 214.822 7.20812C216.826 7.20812 218.83 7.17534 220.834 7.17534C225.927 7.20812 230.428 8.91275 234.271 12.2564C236.571 14.2561 237.721 16.9117 238.083 19.9275C238.378 22.3534 238.477 24.7792 238.378 27.2375C238.345 28.1556 238.378 29.0733 238.378 29.9911C238.345 61.3956 238.345 92.8001 238.28 124.205C238.28 127.974 236.637 130.958 233.647 133.219C231.775 134.629 229.705 135.449 227.405 135.678C226.814 135.744 226.222 135.678 225.631 135.678C197.574 135.842 169.582 135.94 141.558 136.072Z" fill="#43444B"/>
<path fill-rule="evenodd" clip-rule="evenodd" d="M77.7736 93.3786C65.6174 93.4439 53.4618 93.4767 41.3056 93.5422C39.7289 93.5422 39.6632 93.4767 39.6303 91.9034C39.3675 81.4134 39.7617 70.9231 39.8274 60.4662C39.8603 55.7129 39.926 50.9268 40.0246 46.1735C40.0574 44.4033 40.1888 44.3047 41.9301 44.3047C59.6383 44.3047 77.3465 44.3375 95.0548 44.3375C101.363 44.3375 107.671 44.3375 113.946 44.3703C114.307 44.3703 114.669 44.3703 115.03 44.4033C115.687 44.4689 115.851 44.6653 115.884 45.3209V45.8457C115.95 60.9904 116.016 76.1026 116.081 91.2478V91.7065C116.081 92.9852 115.786 93.2803 114.504 93.2803C102.283 93.313 90.0281 93.3458 77.7736 93.3786C77.7736 93.4111 77.7736 93.4111 77.7736 93.3786Z" fill="#43444B"/>
<path fill-rule="evenodd" clip-rule="evenodd" d="M71.8954 86.9496C59.7394 87.0152 47.5835 87.048 35.4276 87.1135C33.8509 87.1135 33.7851 87.048 33.7523 85.4745C33.4895 74.9844 33.8834 64.4944 33.9491 54.0372C33.982 49.2839 34.0477 44.4978 34.1465 39.7445C34.1794 37.9746 34.3105 37.876 36.0518 37.876C53.76 37.876 71.4685 37.9088 89.1765 37.9088C95.4844 37.9088 101.792 37.9088 108.068 37.9415C108.429 37.9415 108.791 37.9415 109.152 37.9746C109.809 38.0399 109.973 38.2366 110.006 38.8922V39.4167C110.072 54.5617 110.138 69.6739 110.203 84.8188V85.2778C110.203 86.5562 109.907 86.8513 108.626 86.8513C96.4046 86.8841 84.1501 86.9168 71.8954 86.9496C71.8954 86.9824 71.8954 86.9824 71.8954 86.9496Z" fill="#FF7B43"/>
<path fill-rule="evenodd" clip-rule="evenodd" d="M77.0574 100.79C88.9177 100.79 100.778 100.79 112.605 100.757C113.788 100.757 114.839 100.987 115.825 101.511C118.453 102.888 120.26 104.887 120.884 107.838C121.279 109.641 121.542 111.476 121.476 113.312C121.443 114.656 121.082 115.902 120.359 117.017C119.209 118.787 117.763 120.262 115.924 121.344C115.168 121.803 114.478 121.934 113.657 121.934C89.8047 121.999 65.9529 122.065 42.101 122.163C41.6079 122.163 41.1153 122.36 40.6225 122.36C40.0969 122.36 39.5055 122.36 39.0784 122.13C35.6616 120.36 33.7889 117.508 33.4275 113.705C33.2961 112.165 33.3944 110.624 33.4932 109.083C33.559 107.805 34.1175 106.657 34.8074 105.608C35.7273 104.199 36.8441 102.986 38.1585 101.904C38.9141 101.281 39.7683 100.954 40.7868 100.954C52.877 100.987 64.9672 100.954 77.0574 100.954V100.79Z" fill="#1B1C21"/>
<path fill-rule="evenodd" clip-rule="evenodd" d="M77.3465 121.436C77.3465 121.469 77.3465 121.469 77.3465 121.436C89.4038 121.338 101.461 121.174 113.551 121.108C114.767 121.108 115.753 120.748 116.705 120.092C117.625 119.404 118.447 118.65 119.071 117.699C121.502 113.995 121.765 110.127 119.826 106.16C118.907 104.259 117.428 102.849 115.523 101.898C114.866 101.571 114.208 101.407 113.453 101.44C103.104 101.505 92.7878 101.538 82.4388 101.571C68.8044 101.603 55.203 101.669 41.5686 101.702C39.3017 101.702 37.5278 102.587 36.1806 104.357C35.7535 104.914 35.3592 105.537 35.0635 106.193C33.7822 108.881 33.5194 111.733 34.0782 114.65C34.4396 116.486 35.1621 118.191 36.3777 119.633C37.659 121.108 39.1703 121.895 41.2072 121.895C53.2974 121.666 65.3219 121.567 77.3465 121.436ZM32.4681 111.864C32.5338 109.274 33.0923 106.816 34.4396 104.619C35.7206 102.522 37.4619 101.013 39.9262 100.522C40.2873 100.456 40.6158 100.391 40.9772 100.391C65.2891 100.292 89.601 100.227 113.88 100.161C114.406 100.161 114.964 100.259 115.424 100.456C119.038 101.964 121.206 104.751 121.995 108.488C123.013 113.339 121.699 117.502 117.888 120.781C117.56 121.043 117.198 121.273 116.87 121.502C115.95 122.125 114.964 122.387 113.847 122.42C101.461 122.518 89.0753 122.649 76.6894 122.747C65.0263 122.846 53.3303 122.977 41.6672 123.075C41.0758 123.075 40.4844 123.174 39.8933 123.075C38.3489 122.879 37.1005 122.092 35.9834 121.043C34.1436 119.24 33.1909 117.011 32.7312 114.519C32.5995 113.634 32.5666 112.749 32.4681 111.864Z" fill="#43444B"/>
<path fill-rule="evenodd" clip-rule="evenodd" d="M51.2276 111.372C51.2604 110.651 50.6362 110.06 49.848 110.028C49.0923 109.995 48.4024 110.585 48.3695 111.274C48.3367 111.962 48.9935 112.618 49.7494 112.65C50.5376 112.683 51.195 112.093 51.2276 111.372ZM49.7165 114.06C48.9606 115.437 48.6321 116.748 48.5006 118.158C49.3551 118.321 50.1436 118.354 50.9647 118.092C50.7019 116.748 50.4393 115.404 49.7165 114.06ZM48.3367 113.568C46.858 112.224 46.6611 110.684 47.8765 109.503C48.9606 108.421 50.8336 108.454 51.8849 109.602C53.0345 110.847 52.7717 112.355 51.1293 113.699C51.5235 115.011 51.8849 116.322 52.2789 117.6C54.8086 116.551 56.2545 113.503 55.5974 110.749C54.8746 107.766 52.2134 105.832 49.0923 106.028C46.2338 106.225 43.7369 108.684 43.5069 111.536C43.2772 114.29 44.9527 117.076 47.1208 117.633C47.5151 116.322 47.9093 115.011 48.3367 113.568ZM49.5848 104.75C53.6916 104.717 57.0755 108.061 57.0755 112.159C57.0755 116.223 53.6916 119.6 49.6177 119.633C45.5438 119.633 42.2258 116.355 42.193 112.257C42.127 108.159 45.4124 104.816 49.5848 104.75Z" fill="#43444B"/>
<path fill-rule="evenodd" clip-rule="evenodd" d="M80.5991 109.602H62.8577C62.5292 109.602 62.2006 109.602 61.8721 109.569C61.5435 109.504 61.3138 109.307 61.3138 108.947C61.3138 108.586 61.5435 108.389 61.8721 108.324C62.1023 108.291 62.3323 108.258 62.5949 108.258C74.5865 108.193 86.6113 108.127 98.603 108.062C98.8327 108.062 99.0958 108.062 99.3257 108.127C99.6543 108.193 99.8511 108.422 99.8183 108.783C99.7857 109.143 99.5555 109.307 99.2269 109.372C98.8984 109.405 98.5701 109.438 98.2416 109.438H80.5991V109.602Z" fill="#43444B"/>
<path fill-rule="evenodd" clip-rule="evenodd" d="M73.7984 115.568H62.3322C62.0696 115.568 61.7739 115.6 61.5437 115.535C61.3468 115.437 61.1169 115.24 61.0511 115.01C60.9523 114.683 61.1823 114.453 61.5108 114.355C61.7082 114.289 61.9379 114.289 62.1353 114.289C69.9217 114.256 77.7078 114.224 85.4941 114.191C85.7244 114.191 85.9872 114.158 86.1841 114.256C86.3815 114.355 86.6443 114.617 86.6443 114.814C86.6443 115.01 86.4143 115.305 86.2169 115.404C85.9544 115.535 85.6258 115.502 85.3301 115.502H73.7984V115.568Z" fill="#43444B"/>
<path fill-rule="evenodd" clip-rule="evenodd" d="M98.7673 115.174H90.5538C90.2907 115.174 89.995 115.207 89.7653 115.109C89.5679 115.01 89.338 114.748 89.338 114.551C89.338 114.355 89.5679 114.093 89.7653 113.961C89.9293 113.863 90.1596 113.896 90.3895 113.896C96.0076 113.83 101.592 113.765 107.211 113.666C107.44 113.666 107.703 113.633 107.901 113.732C108.098 113.83 108.361 114.06 108.361 114.256C108.361 114.453 108.163 114.748 107.966 114.846C107.703 114.977 107.375 114.945 107.079 114.945H98.7673V115.174Z" fill="#43444B"/>
<path fill-rule="evenodd" clip-rule="evenodd" d="M104.845 108.029H107.178C107.375 108.029 107.638 107.996 107.769 108.094C107.933 108.193 108.131 108.455 108.163 108.619C108.163 108.815 107.999 109.045 107.835 109.176C107.703 109.275 107.506 109.275 107.342 109.275C105.732 109.307 104.122 109.373 102.545 109.406H102.447C101.823 109.373 101.461 109.11 101.461 108.717C101.461 108.324 101.79 108.127 102.48 108.127H104.878C104.845 108.094 104.845 108.061 104.845 108.029Z" fill="#43444B"/>
<path fill-rule="evenodd" clip-rule="evenodd" d="M74.01 49.3552H57.9773C57.7473 49.3552 57.4845 49.3552 57.2545 49.3224C56.926 49.2571 56.696 49.0602 56.696 48.6996C56.696 48.3718 56.8931 48.1423 57.2216 48.0767C57.4516 48.0439 57.6816 48.0439 57.9444 48.0439C68.6219 48.1095 79.2995 48.1753 90.0098 48.2406C90.2729 48.2406 90.5683 48.2081 90.7983 48.339C90.9954 48.4373 91.2254 48.7324 91.1926 48.929C91.1926 49.1257 90.9297 49.388 90.6998 49.4535C90.4698 49.5522 90.1741 49.5191 89.9113 49.5191H73.9771C74.01 49.4863 74.01 49.4208 74.01 49.3552Z" fill="#1B1C21"/>
<path fill-rule="evenodd" clip-rule="evenodd" d="M47.4313 50.8954H50.3221C50.3553 50.5021 50.421 50.1415 50.4538 49.6823C50.191 49.7809 50.0596 49.8792 49.895 49.9445C49.5011 50.1087 49.1397 50.0431 48.9423 49.7153C48.6469 49.2564 48.4169 48.7974 48.2523 48.2727C48.1866 48.0762 48.3512 47.7484 48.5154 47.5843C48.7783 47.3878 49.074 47.4862 49.3037 47.7484C49.4682 47.9448 49.5994 48.1418 49.7967 48.4368C50.1253 48.0762 50.421 47.8468 50.6507 47.519C50.9792 47.0928 50.8481 46.7322 50.3221 46.6994C49.3368 46.6667 48.384 46.6994 47.2998 46.6994C47.3327 48.0762 47.3984 49.4203 47.4313 50.8954ZM51.9649 46.0438C52.228 45.7488 52.4579 45.4538 52.6876 45.1913C53.115 44.6998 53.4764 44.6015 53.8049 44.8962C54.1004 45.1588 54.1004 45.5191 53.7061 45.9783C53.3447 46.4372 52.9507 46.8959 52.5565 47.3223C52.2608 47.6501 52.0306 48.0107 51.9977 48.5024C51.9323 49.3548 51.768 50.2071 51.6363 51.0591C51.4723 52.0753 51.1438 52.3051 50.1253 52.2723C49.1726 52.2395 48.2195 52.2395 47.267 52.1739C46.5111 52.1412 46.1826 51.8461 46.1497 51.0591C46.0843 49.6495 46.0186 48.2727 45.9857 46.8634C45.9529 45.8469 46.61 45.2571 47.5953 45.2899C48.3184 45.2899 49.0411 45.3554 49.7311 45.3554C50.5524 45.3882 51.3078 45.4538 51.9649 46.0438Z" fill="#1B1C21"/>
<path fill-rule="evenodd" clip-rule="evenodd" d="M49.7638 62.6967C50.0924 62.3034 50.5195 62.1722 50.4866 61.6477H49.0739C49.3367 62.0411 49.501 62.3034 49.7638 62.6967ZM50.4538 63.9753C49.7968 64.2047 49.1725 64.172 48.7454 63.5491C48.3841 62.9918 47.9241 62.4673 48.2198 61.7134C47.4642 61.7789 47.2342 62.1395 47.267 62.7951C47.2999 63.3852 47.2013 63.9753 47.1682 64.5653V65.7127C47.7598 65.6799 48.2855 65.6474 48.8112 65.6146C50.0924 65.4832 50.2239 65.3521 50.4538 63.9753ZM51.6363 60.7955C51.8994 60.5007 52.1622 60.2382 52.3922 59.9759C52.5236 59.8451 52.6222 59.6809 52.7207 59.5498C52.9833 59.2875 53.2792 59.1892 53.6078 59.4187C53.9363 59.6481 53.9692 59.9759 53.7392 60.271C53.4435 60.6971 53.115 61.1561 52.7207 61.5169C52.1622 62.074 51.768 62.664 51.8008 63.5491C51.8337 64.1064 51.6694 64.6637 51.5051 65.221C51.2423 66.1716 50.585 66.7289 49.5996 66.8272C48.9097 66.8928 48.2526 66.9914 47.5627 66.9914C46.3142 67.0239 45.7883 66.4994 45.8211 65.2868C45.8543 64.2047 45.9528 63.1557 46.0185 62.074C46.0185 61.9756 46.0185 61.8775 46.0842 61.8117C46.6428 61.2544 46.9385 60.4021 47.9241 60.3693C48.4169 60.3693 48.9425 60.3038 49.4353 60.271C50.191 60.2382 50.9464 60.2382 51.6363 60.7955Z" fill="#1B1C21"/>
<path fill-rule="evenodd" clip-rule="evenodd" d="M77.9852 75.6455H86.2972C86.5929 75.6455 86.8886 75.6455 87.1846 75.7439C87.4803 75.8094 87.71 76.0389 87.6771 76.3995C87.6443 76.7273 87.4146 76.924 87.086 76.9567C86.9543 76.9895 86.7903 76.9567 86.6258 76.9567C81.3037 76.9895 75.9483 77.0223 70.626 77.0551C70.166 77.0551 69.7392 77.0879 69.2792 76.9895C69.0164 76.9567 68.7204 76.7601 68.5562 76.5636C68.4576 76.465 68.4576 76.1044 68.5562 76.0061C68.7204 75.8425 68.9835 75.6783 69.2132 75.6783C72.1372 75.7111 75.0612 75.7439 77.9852 75.8094V75.6455Z" fill="#1B1C21"/>
<path fill-rule="evenodd" clip-rule="evenodd" d="M46.9713 78.6286H48.5483C49.0739 78.6286 49.4025 78.3663 49.4682 77.8749C49.5996 76.7273 49.731 75.5799 49.8624 74.4328C49.8624 74.3342 49.7967 74.2359 49.731 74.0722C48.8111 74.2031 47.924 74.3014 47.0041 74.4328C46.9713 75.8424 46.9713 77.1865 46.9713 78.6286ZM45.6243 76.629C45.6243 76.0389 45.5914 75.4491 45.6243 74.8591C45.6571 74.4657 45.7886 74.0723 45.92 73.6787C46.0185 73.3181 46.3142 73.1869 46.6756 73.1216C47.6284 73.0233 48.5811 72.8591 49.5339 72.7938C50.6509 72.6955 51.078 73.0889 51.1437 74.2032C51.2094 75.6455 51.0452 77.0551 50.6509 78.432C50.3552 79.481 49.8624 79.8418 48.7782 79.9074C48.1212 79.9402 47.4641 79.9729 46.8073 79.9402C45.9528 79.9074 45.6571 79.5796 45.6243 78.6942V76.629Z" fill="#1B1C21"/>
<path fill-rule="evenodd" clip-rule="evenodd" d="M66.7163 63.9429C64.8108 63.9101 62.4785 63.8446 60.1459 63.8118C59.9156 63.8118 59.6528 63.779 59.4559 63.6804C59.0945 63.5495 58.93 63.2545 59.0288 62.8939C59.1274 62.5661 59.3902 62.435 59.7188 62.4678C60.9012 62.5006 62.1171 62.5661 63.2995 62.5661C66.7821 62.5986 70.2974 62.5986 73.7802 62.6314C74.0759 62.6314 74.3713 62.6642 74.667 62.697C74.9955 62.7298 75.2255 62.9264 75.2255 63.287C75.2255 63.6804 74.9955 63.8774 74.6341 63.9429C74.3713 63.9754 74.1087 63.9754 73.8459 63.9754C71.5787 63.9429 69.3449 63.9429 66.7163 63.9429Z" fill="#1B1C21"/>
<path fill-rule="evenodd" clip-rule="evenodd" d="M86.7573 63.5169H80.6794C80.4494 63.5169 80.1866 63.5169 79.9566 63.4841C79.6281 63.4513 79.3981 63.2871 79.365 62.9266C79.3321 62.5334 79.5952 62.3368 79.9237 62.2381C80.088 62.2056 80.2851 62.2056 80.4494 62.2056C84.6218 62.1401 88.7943 62.0745 92.9667 62.0417C93.1967 62.0417 93.4924 62.0089 93.6567 62.1401C93.8538 62.2709 94.0835 62.5334 94.0835 62.7301C94.0835 62.9266 93.8209 63.1891 93.6238 63.2871C93.3936 63.3858 93.0981 63.353 92.8353 63.353H86.7573V63.5169Z" fill="#1B1C21"/>
<path fill-rule="evenodd" clip-rule="evenodd" d="M61.0985 77.0876H58.0431C57.8788 77.0876 57.6488 77.1204 57.5174 77.0549C57.2874 76.9237 57.0246 76.7598 56.9589 76.5631C56.8603 76.2353 57.09 76.0058 57.386 75.8747C57.5503 75.8091 57.7474 75.7764 57.9117 75.7764C60.1457 75.8091 62.3798 75.8419 64.6136 75.9075C65.1395 75.9075 65.4352 76.2025 65.4023 76.5631C65.3692 76.9237 65.0738 77.186 64.5481 77.186C63.3983 77.2188 62.2152 77.186 61.0656 77.186C61.0985 77.186 61.0985 77.1204 61.0985 77.0876Z" fill="#1B1C21"/>
<path fill-rule="evenodd" clip-rule="evenodd" d="M96.0221 49.3549H94.8723C94.5437 49.3549 94.3137 49.1254 94.2809 48.7976C94.248 48.4043 94.478 48.142 94.8394 48.1092C95.759 48.0109 96.6792 47.9781 97.5991 47.9453C97.9605 47.9453 98.2562 48.1092 98.2891 48.5026C98.3219 48.8635 98.0919 49.1254 97.632 49.1913C97.1389 49.3221 96.6464 49.3221 96.0221 49.3549Z" fill="#1B1C21"/>
<path fill-rule="evenodd" clip-rule="evenodd" d="M93.6896 75.1542C94.1164 75.1542 94.5106 75.1214 94.938 75.1542C95.2994 75.187 95.562 75.3179 95.6279 75.7115C95.6608 76.0721 95.4634 76.3671 94.9709 76.3999C94.1492 76.4655 93.3282 76.4982 92.4737 76.4655C91.9812 76.4655 91.6852 76.1049 91.7181 75.7443C91.7838 75.3179 92.1123 75.187 92.5068 75.187H93.6567C93.6896 75.187 93.6896 75.1542 93.6896 75.1542Z" fill="#1B1C21"/>
<path fill-rule="evenodd" clip-rule="evenodd" d="M63.1028 16.5834C61.9203 16.5834 60.9673 17.4685 60.9345 18.6159C60.9345 19.7302 61.8215 20.6155 62.9717 20.6155C64.1541 20.6155 65.1069 19.7302 65.1398 18.6159C65.1398 17.5013 64.2527 16.5834 63.1028 16.5834ZM66.4211 18.5832C66.4211 20.4515 64.8769 21.9924 62.9717 21.9597C61.0987 21.9269 59.5875 20.4187 59.5875 18.616C59.6203 16.813 61.1644 15.272 63.0043 15.272C64.9098 15.2392 66.4211 16.7472 66.4211 18.5832Z" fill="#43444B"/>
<path fill-rule="evenodd" clip-rule="evenodd" d="M72.9919 18.5829C72.9919 19.6319 73.8461 20.4184 74.8976 20.4184C75.8501 20.4184 76.606 19.6319 76.606 18.7138C76.5729 17.7306 75.6859 16.8455 74.6674 16.8783C73.6818 16.8783 72.959 17.632 72.9919 18.5829ZM77.8542 18.8452C77.7885 20.517 76.4415 21.7624 74.7003 21.6971C72.9919 21.6316 71.5463 20.1564 71.612 18.4846C71.6777 16.8127 73.0576 15.5342 74.7331 15.567C76.5072 15.6323 77.9199 17.1077 77.8542 18.8452Z" fill="#43444B"/>
<path fill-rule="evenodd" clip-rule="evenodd" d="M85.5092 20.4188C86.4948 20.4188 87.3488 19.5337 87.3488 18.4847C87.3488 17.5671 86.6917 16.8787 85.8049 16.8787C84.8847 16.8787 84.0308 17.7635 83.998 18.7469C83.9651 19.6651 84.6219 20.386 85.5092 20.4188ZM85.5421 21.6975C83.932 21.6975 82.7167 20.4515 82.7167 18.7797C82.7167 17.0423 84.1622 15.5674 85.8707 15.5674C87.4476 15.5674 88.663 16.8786 88.663 18.5505C88.6304 20.2879 87.2177 21.6975 85.5421 21.6975Z" fill="#43444B"/>
<path fill-rule="evenodd" clip-rule="evenodd" d="M210.432 69.1925V43.5247C210.432 41.8201 210.53 41.722 212.173 41.7546C213.979 41.7873 215.754 41.8529 217.561 41.9185C218.776 41.9512 219.006 42.2135 219.039 43.4267C219.105 55.4571 219.137 67.5207 219.203 79.5514C219.236 84.7311 219.236 89.9103 219.269 95.1225C219.269 95.4176 219.302 95.7126 219.236 96.0079C219.137 96.5321 218.612 96.7616 218.251 96.401C217.791 95.9421 217.265 96.0079 216.772 96.0079C215.195 96.0732 213.618 96.1715 212.041 96.2699C211.811 96.2699 211.581 96.401 211.384 96.4666C210.858 96.6632 210.53 96.4993 210.432 95.9421C210.399 95.647 210.399 95.352 210.399 95.057V69.2253C210.399 69.1925 210.399 69.1925 210.432 69.1925Z" fill="#FF7B43"/>
<path fill-rule="evenodd" clip-rule="evenodd" d="M185.265 74.4055C185.331 81.2568 185.43 88.1081 185.496 94.9594V95.4183C185.43 96.2706 185.134 96.4345 184.345 96.1067C184.181 96.0409 184.017 95.9756 183.82 96.0084C182.703 96.0737 181.619 96.1723 180.502 96.2051C179.352 96.2379 178.169 96.2051 177.019 96.2051C176.658 96.2051 176.428 95.9428 176.395 95.5822C176.362 95.3525 176.362 95.0905 176.362 94.861C176.395 81.2568 176.428 67.6198 176.461 54.0155C176.461 52.5732 176.526 52.5076 177.972 52.4748C179.877 52.4093 181.783 52.3762 183.688 52.3109C184.806 52.2781 184.97 52.4748 185.003 53.5894C185.134 60.5062 185.2 67.4559 185.265 74.4055Z" fill="#FF7B43"/>
<path fill-rule="evenodd" clip-rule="evenodd" d="M152.576 89.4846V94.5657C152.576 94.7952 152.576 95.0571 152.543 95.2869C152.477 95.8114 152.247 95.9753 151.689 95.9753C150.013 95.9753 148.338 95.9425 146.695 95.9753C146.268 95.9753 145.808 96.1061 145.414 96.2375C144.888 96.3687 144.592 96.2375 144.494 95.7128C144.461 95.4836 144.428 95.2541 144.428 94.9918C144.362 91.4187 144.297 87.8453 144.231 84.2724C144.198 83.3217 144.395 83.092 145.348 83.0592C147.451 82.9939 149.521 82.9283 151.623 82.8956C152.576 82.8628 152.806 83.092 152.806 84.0429V89.4846H152.576Z" fill="#FF7B43"/>
<path fill-rule="evenodd" clip-rule="evenodd" d="M201.857 64.8331H195.056V65.8821C195.089 75.5524 195.121 85.2559 195.154 94.9264C195.154 95.2542 195.187 95.6148 195.089 95.9098C195.023 96.1065 194.793 96.3688 194.563 96.4343C194.235 96.5327 194.005 96.3032 193.906 95.9754C193.84 95.7459 193.84 95.5165 193.84 95.2542C193.807 85.092 193.774 74.9298 193.742 64.7676C193.742 63.7186 193.873 63.5219 194.99 63.4891C196.074 63.4235 197.126 63.4891 198.21 63.4891H201.89C202.941 63.5219 203.138 63.6858 203.138 64.7676C203.204 68.9636 203.237 73.1593 203.302 77.3556C203.368 83.2562 203.434 89.1569 203.499 95.0575C203.499 95.3198 203.532 95.582 203.499 95.877C203.467 96.336 203.204 96.5982 202.842 96.5655C202.448 96.5327 202.251 96.3032 202.251 95.9098C202.251 95.7129 202.251 95.4837 202.218 95.287C202.087 85.4854 201.988 75.6838 201.857 65.8821C201.824 65.5543 201.857 65.2265 201.857 64.8331Z" fill="#FF7B43"/>
<path fill-rule="evenodd" clip-rule="evenodd" d="M167.393 95.91C167.327 86.5673 167.262 77.29 167.163 67.882C165.126 67.8492 163.188 67.8492 161.118 67.8492V68.9638C161.184 77.2247 161.282 85.4525 161.348 93.7137C161.348 94.4676 161.282 95.2544 161.249 96.0084C160.296 96.1395 160.1 96.0084 160.1 95.2216C160.067 93.6153 160.034 92.009 160.034 90.4028C159.968 83.0923 159.902 75.7495 159.837 68.4393V67.8164C159.935 66.833 160.198 66.6035 161.217 66.6035C163.319 66.6035 165.389 66.6363 167.491 66.6363C168.313 66.6363 168.477 66.8002 168.51 67.6197C168.543 67.9803 168.51 68.3409 168.51 68.7015C168.576 77.1591 168.641 85.6167 168.707 94.0743V94.9594C168.641 95.7789 168.379 95.9428 167.393 95.91Z" fill="#FF7B43"/>
<path fill-rule="evenodd" clip-rule="evenodd" d="M159.935 119.742C160.625 120.103 161.249 119.841 161.874 119.644C162.662 119.382 163.45 118.988 164.272 118.955C165.422 118.89 166.571 119.087 167.722 119.218C168.181 119.283 168.412 119.644 168.313 119.972C168.214 120.398 167.886 120.496 167.491 120.463C166.999 120.398 166.506 120.299 165.98 120.267C164.765 120.136 163.582 120.234 162.498 120.791C162.432 120.824 162.333 120.857 162.235 120.89C161.118 121.348 160.034 121.447 158.982 120.758C158.555 120.988 158.161 121.25 157.734 121.48C156.551 122.07 155.401 122.004 154.547 121.021C153.66 120.004 152.74 120.037 151.689 120.595C151.393 120.758 150.999 120.824 150.67 120.824C150.211 120.857 149.882 120.627 149.652 120.201C149.487 119.841 149.487 119.48 149.783 119.218C150.079 118.923 150.44 118.955 150.736 119.251C150.802 119.316 150.867 119.349 150.966 119.447C151.393 119.283 151.853 119.119 152.313 118.988C153.299 118.693 154.186 118.89 154.941 119.644L155.007 119.709C156.19 120.824 156.781 120.824 157.997 119.775C158.063 119.185 158.063 118.628 158.194 118.169C158.358 117.579 158.884 117.316 159.344 117.415C159.771 117.513 160.066 117.906 160.099 118.497C160.099 118.857 160.001 119.251 159.935 119.742Z" fill="#43444B"/>
<path fill-rule="evenodd" clip-rule="evenodd" d="M156.847 108.629C156.617 108.957 156.42 109.317 156.124 109.579C155.73 109.907 155.27 110.235 154.777 110.431C154.317 110.596 153.824 110.431 153.529 110.006C153.233 109.579 153.2 109.022 153.594 108.596C153.923 108.235 154.383 107.973 154.777 107.711C155.007 107.547 155.336 107.481 155.631 107.383C155.598 106.891 155.336 106.76 154.941 106.694C153.693 106.465 151.558 107.416 150.901 108.498C150.67 108.858 150.342 108.989 150.013 108.858C149.652 108.694 149.554 108.366 149.652 108.038C149.75 107.776 149.882 107.481 150.112 107.285C151.36 106.105 152.904 105.449 154.613 105.383C155.894 105.318 156.485 105.842 157.11 107.35C158.128 107.416 159.048 107.94 159.935 108.465C160.494 108.792 161.118 108.858 161.742 108.792C162.268 108.727 162.826 108.694 163.352 108.694C163.812 108.694 164.075 108.957 164.075 109.317C164.075 109.678 163.845 109.907 163.385 109.973C162.958 110.038 162.564 110.038 162.136 110.104C160.986 110.268 159.935 110.038 158.982 109.448C158.358 108.924 157.668 108.53 156.847 108.629Z" fill="#43444B"/>
<path fill-rule="evenodd" clip-rule="evenodd" d="M176.198 119.938C177.972 120.201 179.615 120.43 181.257 120.66C182.966 120.889 184.641 120.692 186.317 120.234C186.842 120.069 187.138 120.168 187.302 120.529C187.467 120.889 187.237 121.348 186.711 121.446C185.561 121.676 184.444 121.873 183.294 122.004C181.849 122.135 180.436 121.873 179.023 121.61C178.465 121.512 177.906 121.446 177.347 121.381C176.822 121.315 176.362 121.348 176.066 121.905C175.869 122.266 175.475 122.397 175.048 122.233C174.687 122.102 174.522 121.84 174.522 121.479C174.522 121.283 174.654 121.086 174.719 120.889C174.785 120.758 174.884 120.66 175.048 120.463C174.818 120.332 174.654 120.102 174.457 120.102C173.438 120.037 172.485 120.168 171.828 121.053C171.795 121.086 171.795 121.152 171.763 121.217C171.565 121.479 171.237 121.643 171.007 121.413C170.81 121.25 170.646 120.922 170.646 120.692C170.678 120.397 170.875 120.069 171.105 119.873C172.189 118.955 173.471 118.627 174.851 118.857C175.508 118.955 175.935 119.512 176.198 119.938Z" fill="#43444B"/>
<path fill-rule="evenodd" clip-rule="evenodd" d="M139.664 118.955C139.138 118.987 138.744 119.02 138.252 119.053C138.285 119.61 138.285 120.069 138.317 120.561H139.664V118.955ZM141.011 119.774C141.011 120.168 141.044 120.561 141.011 120.922C140.913 121.545 140.65 121.839 140.025 121.872C139.303 121.905 138.613 121.905 137.89 121.872C137.397 121.872 137.102 121.545 137.069 121.085C137.003 120.299 137.003 119.479 137.003 118.692C137.003 118.201 137.331 117.938 137.792 117.873C138.514 117.742 139.27 117.643 139.993 117.611C140.519 117.578 140.88 117.906 140.946 118.463C141.011 118.889 140.979 119.315 141.011 119.774Z" fill="#43444B"/>
<path fill-rule="evenodd" clip-rule="evenodd" d="M137.496 107.154V106.629C137.529 105.908 137.693 105.679 138.383 105.482C139.106 105.285 139.796 105.416 140.453 105.744C140.913 105.974 141.077 106.433 141.077 106.924C141.077 107.088 141.011 107.285 140.978 107.449C140.65 109.186 140.256 109.285 138.416 109.088C137.824 109.022 137.562 108.662 137.529 108.039C137.463 107.777 137.496 107.482 137.496 107.154Z" fill="#43444B"/>
<path fill-rule="evenodd" clip-rule="evenodd" d="M170.251 107.646C170.383 107.646 170.514 107.646 170.58 107.711C170.777 107.875 171.04 108.039 171.073 108.236C171.171 108.564 170.941 108.826 170.613 108.891C169.857 109.022 169.101 109.153 168.477 109.645C168.346 109.744 167.951 109.678 167.853 109.547C167.722 109.383 167.656 109.055 167.689 108.826C167.722 108.629 167.951 108.399 168.116 108.301C168.773 108.006 169.496 107.777 170.153 107.515C170.251 107.58 170.251 107.613 170.251 107.646Z" fill="#43444B"/>
<path fill-rule="evenodd" clip-rule="evenodd" d="M134.246 95.3213H135.462C166.344 95.3868 197.227 95.4849 228.109 95.5507C228.471 95.5507 228.832 95.5507 229.194 95.5835C229.555 95.6163 229.818 95.8127 229.818 96.2064C229.818 96.5997 229.522 96.7962 229.161 96.8289C228.799 96.862 228.438 96.862 228.077 96.862C197.096 96.7637 166.081 96.6981 135.1 96.5997C134.64 96.5997 134.213 96.6325 133.753 96.6325C133.227 96.6653 132.998 96.4683 132.932 95.9113C132.899 95.6819 132.899 95.4193 132.899 95.1901C132.768 76.9637 132.669 58.7045 132.538 40.4779C132.538 40.1831 132.505 39.8881 132.538 39.593C132.57 39.0358 132.801 38.7732 133.162 38.7732C133.556 38.7405 133.786 39.003 133.819 39.5603C133.852 39.9536 133.852 40.347 133.852 40.7076C133.95 56.4426 134.049 72.1777 134.148 87.9124C134.148 90.0435 134.181 92.1415 134.181 94.2723C134.213 94.6001 134.246 94.9279 134.246 95.3213Z" fill="#43444B"/>
<path fill-rule="evenodd" clip-rule="evenodd" d="M210.796 42.084C210.27 42.2807 209.777 42.4771 209.317 42.6741C209.12 42.7396 208.923 42.9033 208.726 42.8705C208.496 42.8377 208.167 42.7068 208.102 42.5099C208.036 42.3462 208.134 42.0184 208.266 41.8215C208.364 41.6578 208.594 41.5923 208.792 41.5264C210.04 41.0022 211.288 40.5102 212.504 39.986C212.635 39.9204 212.767 39.8546 212.931 39.8546C213.457 39.7237 213.851 39.986 213.851 40.5102C213.851 41.0678 213.818 41.6578 213.687 42.1821C213.457 43.2311 213.128 44.2473 212.833 45.2963C212.8 45.3949 212.767 45.526 212.701 45.6241C212.537 45.9191 212.307 46.0505 211.978 45.9847C211.617 45.8866 211.518 45.6241 211.551 45.2963C211.584 44.9357 211.716 44.6079 211.781 44.2473C211.88 43.8539 212.011 43.4608 212.11 43.0674C212.044 43.0019 211.978 42.9691 211.912 42.9033C211.716 43.1983 211.518 43.4936 211.255 43.7558C204.06 51.4922 196.898 59.2283 189.703 66.965C189.506 67.1945 189.309 67.4237 189.079 67.6206C188.619 68.014 188.225 67.9812 187.864 67.4892C187.732 67.2928 187.601 67.0959 187.469 66.8994C185.17 63.1952 182.87 59.5236 180.57 55.8191C180.406 55.5568 180.242 55.2949 180.012 54.9343C179.748 55.3276 179.552 55.6227 179.355 55.9177C175.051 62.5067 170.747 69.0958 166.443 75.6846C165.622 76.9633 165.424 76.9633 164.307 75.8815C162.007 73.6193 159.741 71.3249 157.474 69.063C157.244 68.8333 157.08 68.5382 156.816 68.1776C156.488 68.6041 156.291 68.8333 156.094 69.0958C152.94 73.3246 149.786 77.5534 146.599 81.7819C146.435 82.0116 146.238 82.2739 146.041 82.4703C145.811 82.7 145.515 82.7656 145.219 82.5361C144.957 82.3394 144.891 82.0444 145.055 81.7491C145.153 81.5527 145.318 81.356 145.449 81.159C148.866 76.6027 152.283 72.0461 155.667 67.4892C155.798 67.3256 155.897 67.1614 156.061 66.9978C156.39 66.67 156.718 66.6372 157.112 66.9322C157.31 67.0631 157.474 67.26 157.638 67.4237C159.938 69.7186 162.238 72.0133 164.537 74.3077C164.767 74.5375 164.932 74.8325 165.227 75.1931C165.523 74.7342 165.753 74.4719 165.917 74.1769C170.287 67.5223 174.623 60.8677 178.993 54.18C179.091 54.0164 179.223 53.8194 179.355 53.6558C179.847 52.9674 180.307 52.9674 180.8 53.7214C180.997 53.9836 181.161 54.2786 181.326 54.5406C183.593 58.1468 185.827 61.7856 188.094 65.3912C188.258 65.6538 188.422 65.8832 188.554 66.1124C188.619 66.1124 188.652 66.1452 188.685 66.1452H188.784C188.915 66.0143 189.046 65.916 189.178 65.7846C196.406 58.0157 203.634 50.2138 210.828 42.4446C210.796 42.2807 210.763 42.2148 210.796 42.084Z" fill="#43444B"/>
<path fill-rule="evenodd" clip-rule="evenodd" d="M276.135 46.2239C277.121 46.8468 278.304 47.2729 279.454 47.7319C282.082 48.7481 284.71 49.6988 287.273 50.8133C288.751 51.469 290.131 52.4196 291.544 53.2064C291.807 53.3375 292.102 53.567 292.332 53.5014C292.891 53.3375 293.154 53.6 293.482 53.9606C293.844 54.3865 294.238 54.8126 294.566 55.2388C294.895 55.698 295.191 56.1567 295.486 56.6487C295.683 57.0093 295.716 57.3699 295.486 57.763C295.388 57.9597 295.355 58.2219 295.355 58.4514C295.355 61.5328 294.763 64.549 293.942 67.5318C293.285 69.9248 292.595 72.3509 291.872 74.744C291.478 76.0222 290.92 77.2351 290.525 78.5138C290.098 79.9234 289.704 81.3655 289.343 82.8079C289.047 83.9224 288.85 85.0701 288.62 86.2171C288.554 86.6433 288.488 87.135 288.587 87.5284C289.146 89.7578 288.948 91.9539 288.784 94.183C288.751 94.6419 288.686 95.1337 288.686 95.5929C288.686 96.0843 288.456 96.3466 288.094 96.6091C287.339 97.1005 286.484 97.2644 285.63 97.3303C281.031 97.7562 276.431 97.7234 271.831 97.5595C269.4 97.4611 266.936 97.3956 264.505 97.2644C263.75 97.2317 262.961 97.0678 262.238 96.8711C261.219 96.576 260.628 95.8221 260.398 94.7731C260.037 92.9048 260.103 91.036 260.3 89.1677C260.431 87.8234 260.596 86.4466 260.727 85.0701C260.004 84.8075 259.347 84.4797 258.559 84.7748C258.361 84.8403 258.131 84.8403 257.934 84.8403C254.255 84.9059 250.608 85.0045 246.928 85.0701C244.267 85.1026 241.606 85.2009 238.945 85.1681C237.236 85.1681 235.561 85.0045 233.852 84.8731C233.36 84.8403 232.867 84.6439 232.374 84.4797C231.388 84.1191 230.6 83.5619 230.337 82.4473C230.041 81.2016 229.68 79.9887 229.351 78.743C228.727 76.4486 228.037 74.1536 227.479 71.8589C226.986 69.9248 226.592 67.9582 226.23 66.0239C226 64.647 226.329 63.3686 227.479 62.3851C227.545 62.3196 227.577 62.254 227.676 62.1559C227.577 61.959 227.479 61.7295 227.38 61.5328C226.723 60.3527 226.066 59.1398 225.343 57.9597C224.818 57.042 224.423 56.1895 225.376 55.2716C224.522 53.6981 223.733 52.1901 222.879 50.6822C222.715 50.3544 222.386 50.0921 222.058 49.9282C221.138 49.4365 220.612 48.617 220.218 47.6991C220.185 47.6335 220.185 47.6008 220.152 47.5352C219.89 46.4865 220.218 45.9945 221.335 45.7981C221.368 44.7491 221.171 43.5687 222.748 43.3064C222.616 42.9458 222.485 42.618 222.354 42.2902C222.058 41.4051 221.729 40.5528 221.467 39.6677C221.368 39.4054 221.335 39.0776 221.401 38.7826C221.467 38.5534 221.697 38.3236 221.894 38.2584C222.058 38.1925 222.354 38.3236 222.518 38.4548C222.649 38.5534 222.715 38.7498 222.814 38.8809C223.701 40.3889 224.752 41.7329 226.165 42.8147C227.709 43.962 228.629 45.4375 228.924 47.3385C229.154 48.7153 229.483 50.0921 229.779 51.4362C229.844 51.764 229.976 52.1246 230.107 52.518C231.323 52.1901 231.848 52.9769 232.243 53.862C233.622 56.9107 235.659 59.5332 237.532 62.2212C237.861 62.6802 238.189 62.8771 238.781 62.8443C242.099 62.8116 245.417 62.8443 248.735 62.8443C249.491 62.8443 250.279 62.6802 251.035 62.6146C251.495 62.549 251.725 62.3196 251.922 61.8606C252.645 60.0907 253.367 58.3202 254.123 56.5828C254.583 55.5338 255.109 54.5504 255.635 53.5342C256.39 52.1246 257.507 51.0428 259.019 50.5186C261.253 49.7315 263.52 48.9448 265.786 48.2236C266.903 47.863 268.086 47.568 269.269 47.2402V41.569C268.086 41.6348 266.903 41.7004 265.721 41.7657C265.425 41.7657 265.129 41.7329 264.834 41.6676C263.618 41.4707 262.862 40.7495 262.534 39.5696C262.107 38.0614 262.107 36.4879 262.238 34.9472C262.402 32.8819 262.698 30.8167 262.895 28.719C262.961 28.0306 263.355 27.5714 263.815 27.178C263.979 27.0469 264.242 27.0469 264.472 27.0469C265.261 27.1124 266.049 27.2763 266.871 27.3094C269.4 27.4403 271.897 27.8664 274.394 28.3909C275.873 28.6862 276.825 29.571 277.351 30.9806C277.581 31.5707 277.745 32.0955 278.435 32.3574C279.026 32.5869 279.191 33.2753 279.059 33.8982C278.698 35.4061 278.008 36.7501 276.628 37.6027C276.464 37.7008 276.333 37.7991 276.07 37.9305C276.135 40.6839 276.135 43.405 276.135 46.2239Z" fill="#1B1C21"/>
<path fill-rule="evenodd" clip-rule="evenodd" d="M269.367 207.016C269.203 207.475 269.104 207.967 268.875 208.425C268.612 208.983 268.316 209.048 267.692 208.95C267.298 208.884 266.871 208.819 266.476 208.819C265.162 208.819 263.848 208.852 262.567 208.819C262.14 208.819 261.745 208.753 261.351 208.622C260.891 208.491 260.661 208.13 260.727 207.672C260.825 207.016 260.99 206.327 261.187 205.672C261.351 205.115 261.745 204.951 262.205 205.344C262.501 205.607 262.797 205.574 263.092 205.607C264.538 205.639 266.016 205.639 267.462 205.672C267.692 205.672 267.955 205.672 268.185 205.705C269.039 205.737 269.302 206.065 269.367 207.016Z" fill="#1B1C21"/>
<path fill-rule="evenodd" clip-rule="evenodd" d="M289.342 198.362C289.178 198.755 289.014 199.28 288.718 199.706C288.521 200.067 288.193 200.362 287.897 200.624C286.78 201.64 285.663 202.656 284.513 203.673C283.79 204.295 283.297 204.295 282.739 203.705C282.115 203.05 282.147 202.46 282.903 201.935C283.494 201.509 284.119 201.083 284.743 200.69C285.827 199.968 286.616 198.985 287.371 197.969C287.568 197.706 287.733 197.411 287.963 197.182C288.39 196.788 288.883 196.887 289.113 197.411C289.178 197.641 289.211 197.936 289.342 198.362Z" fill="#1B1C21"/>
<path fill-rule="evenodd" clip-rule="evenodd" d="M281.18 166.751C281.771 168.62 282.395 170.489 282.987 172.357C285.287 179.602 287.586 186.814 289.919 194.059C290.116 194.714 290.083 195.238 289.82 195.828C288.867 197.992 287.291 199.631 285.287 200.877C284.104 201.598 282.855 202.286 281.607 202.909C280.72 203.368 280.293 203.205 279.931 202.286C278.847 199.598 277.796 196.91 276.745 194.222C276.449 193.501 276.186 192.78 275.857 192.059C275.562 191.37 275.496 190.715 275.66 189.961C276.514 186.093 277.369 182.224 278.223 178.356C279.011 174.75 279.833 171.144 280.621 167.538C280.687 167.243 280.818 166.948 280.917 166.653C281.048 166.719 281.114 166.751 281.18 166.751Z" fill="#7688C9"/>
<path fill-rule="evenodd" clip-rule="evenodd" d="M270.734 110.184C270.623 110.831 270.546 111.318 270.502 111.646C269.024 121.448 267.579 131.249 266.1 141.084C264.95 148.82 263.768 156.589 262.617 164.326C262.585 164.457 262.585 164.621 262.585 164.785C262.519 165.31 262.289 165.637 261.96 165.604C261.5 165.572 261.336 165.244 261.27 164.818C261.172 164.064 261.041 163.342 260.975 162.621C260.515 158.556 260.022 154.524 259.595 150.459C259.102 145.804 258.642 141.149 258.215 136.494C257.92 133.217 258.018 129.938 258.379 126.66C258.971 120.989 259.726 115.318 260.384 109.614C260.679 107.024 260.909 104.402 261.139 101.779C261.27 100.435 261.369 99.1241 261.5 97.7798C261.566 97.2225 261.862 96.993 262.421 97.1569C265.541 98.0423 268.761 97.8781 271.948 97.8126C274.379 97.7798 276.778 97.5503 279.176 97.4194C279.734 97.3867 280.326 97.3208 280.884 97.3867C283.151 97.5831 285.418 97.3539 287.685 97.0589C288.638 96.9602 289.131 97.288 289.262 98.2059C290.182 103.713 290.707 109.253 290.872 114.826C291.003 118.989 290.511 123.12 289.426 127.119C287.258 135.216 285.517 143.379 283.71 151.541C280.687 165.276 277.664 178.979 274.675 192.714C273.788 196.714 272.934 200.68 272.079 204.68C271.981 205.073 271.784 205.303 271.422 205.466C270.305 205.991 269.122 206.319 267.907 206.384C265.541 206.515 263.209 206.253 260.876 205.86C260.252 205.761 259.628 205.466 259.036 205.204C258.314 204.876 257.952 204.287 258.084 203.467C258.248 202.418 258.346 201.336 258.511 200.287C259.463 193.403 260.416 186.552 261.336 179.668C262.19 173.373 263.078 167.112 263.964 160.818C264.786 154.983 265.574 149.148 266.363 143.28C267.119 137.839 267.874 132.43 268.63 126.988C269.254 122.431 269.878 117.842 270.502 113.253C270.59 112.553 270.667 111.53 270.734 110.184Z" fill="#7688C9"/>
<path fill-rule="evenodd" clip-rule="evenodd" d="M275.233 78.5374C275.069 78.4718 274.806 78.4063 274.576 78.3077C273.492 77.849 272.375 77.3901 271.291 76.9311C270.732 76.7017 270.207 76.4722 269.582 76.5705C269.09 76.6358 268.86 76.3738 268.892 75.8493C268.926 75.4232 269.024 74.9642 269.122 74.5381C270.272 69.1289 271.455 63.7203 272.605 58.3113C272.736 57.7213 272.671 57.2295 272.309 56.705C271.882 56.1147 271.521 55.4919 271.159 54.9021C270.732 54.1809 270.765 53.4925 271.324 52.8369C271.751 52.3776 272.079 51.8206 272.506 51.3614C272.933 50.9028 273.196 50.9028 273.656 51.2961C274.313 51.8862 274.938 52.4435 275.562 53.066C276.383 53.8859 276.383 54.2792 275.693 55.2299C275.299 55.7869 274.872 56.3445 274.445 56.869C274.149 57.2295 274.051 57.5901 274.116 58.0163C274.445 60.5405 274.741 63.0318 275.069 65.556C275.562 69.4895 276.055 73.4235 276.547 77.3573C276.613 78.1768 276.252 78.3735 275.233 78.5374Z" fill="#7688C9"/>
<path fill-rule="evenodd" clip-rule="evenodd" d="M275.036 92.2729C274.971 92.5024 274.905 92.7644 274.806 93.0594C274.51 93.8137 274.248 94.5676 273.919 95.2888C273.591 96.0428 272.966 96.1409 272.507 95.4525C271.488 93.8464 270.502 92.2074 269.517 90.6008C269.451 90.5028 269.418 90.4044 269.385 90.273C269.319 89.9452 269.352 89.6174 269.714 89.5521C269.944 89.4865 270.272 89.5521 270.437 89.6829C271.488 90.6992 272.802 91.027 274.182 91.322C274.839 91.4534 275.069 91.6498 275.036 92.2729Z" fill="#7688C9"/>
<path fill-rule="evenodd" clip-rule="evenodd" d="M221.09 46.4115C220.959 47.4605 221.32 48.1489 221.944 48.7717C222.109 48.3128 222.109 48.3128 221.09 46.4115ZM222.798 43.8216C222.339 43.8874 222.207 44.3136 222.207 44.707C222.207 45.6904 222.503 46.5752 223.226 47.3295C223.357 46.903 223.456 46.4772 223.39 46.051C223.258 45.3298 223.029 44.6086 222.798 43.8216ZM229.698 51.9516C229.238 50.1486 228.811 48.3784 228.351 46.5752C228.121 45.6576 227.628 44.9036 226.971 44.2152C225.591 42.7728 224.31 41.2649 222.996 39.7569C222.733 39.4619 222.503 39.1013 222.273 38.7735C222.174 39.1013 222.207 39.3635 222.273 39.6586C222.503 40.8059 223.193 41.7238 223.817 42.6745C224.014 42.9695 224.343 43.2317 224.638 43.4612C225.263 43.9201 225.92 44.3463 226.511 44.838C227.069 45.2642 227.201 45.6903 226.938 46.0509C226.675 46.4115 226.314 46.346 225.723 45.8868C225.492 45.6903 225.263 45.4937 225.033 45.3297C224.868 45.2314 224.704 45.1658 224.343 44.9692C224.605 45.5592 224.704 45.9526 224.934 46.3132C225.263 46.8705 225.624 47.4277 226.018 47.9523C226.248 48.2798 226.38 48.5751 226.084 48.9029C225.821 49.1652 225.394 49.1324 225.033 48.8373C224.835 48.6407 224.638 48.4112 224.474 48.2473C224.08 48.5423 223.752 48.8373 223.39 49.0996C223.817 50.6403 225.23 53.6234 225.756 54.1479C226.38 53.7215 226.971 53.2628 227.628 52.9022C228.252 52.4761 228.975 52.2466 229.698 51.9516ZM251.415 75.9804C252.367 76.2751 253.32 76.5704 254.273 76.8655C254.47 76.931 254.667 76.9638 254.864 77.0622C255.16 77.1933 255.357 77.4227 255.291 77.7506C255.226 78.0784 254.995 78.2423 254.667 78.2751C254.437 78.3076 254.207 78.2423 253.944 78.2423C253.484 78.2095 253.024 78.1767 252.531 78.1439C252.597 78.3406 252.728 78.4062 252.86 78.4718C253.287 78.6357 253.714 78.7668 254.108 78.9307C254.667 79.1602 254.897 79.4224 254.765 79.8158C254.667 80.2092 254.305 80.3075 253.714 80.1764C253.451 80.1108 253.221 80.0453 252.893 79.9469C253.747 80.8648 257.427 82.34 258.806 82.34C259.069 79.6844 259.989 77.2588 261.829 75.1936C260.482 74.4724 259.267 73.6529 257.788 73.0628C257.854 73.2595 257.854 73.3579 257.92 73.4234C258.149 73.6857 258.281 73.9807 258.084 74.3085C257.854 74.6363 257.525 74.6035 257.197 74.538C256.802 74.4724 256.441 74.3741 256.047 74.3085C255.061 74.1774 254.075 74.0463 253.09 73.9479C253.09 74.0135 253.057 74.0463 253.057 74.1118C253.189 74.1774 253.32 74.2099 253.451 74.2757C254.207 74.538 254.962 74.8002 255.718 75.0625C256.211 75.2592 256.408 75.5542 256.309 75.9148C256.211 76.2751 255.883 76.4393 255.357 76.341C254.93 76.2751 254.536 76.1443 254.141 76.0787C253.254 75.9476 252.367 75.7181 251.415 75.9804ZM236.893 61.9169C236.335 61.0976 235.842 60.3764 235.382 59.6552C234.133 57.7211 232.918 55.7867 231.702 53.8529C231.373 53.3284 231.012 53.1317 230.453 53.2629C229.632 53.4923 228.778 53.7215 227.989 54.0496C227.103 54.443 226.478 55.197 225.952 56.0165C225.788 56.2787 225.624 56.5738 225.821 56.9344C226.248 57.6556 226.642 58.3767 227.07 59.1307C227.267 58.9668 227.431 58.8357 227.595 58.7373C228.351 58.3112 229.074 57.8522 229.83 57.4589C230.421 57.1638 230.815 57.2622 230.979 57.6556C231.143 58.0161 230.947 58.344 230.322 58.639C229.83 58.9012 229.304 59.1307 228.811 59.4257C228.384 59.7208 228.022 60.1142 227.628 60.4092C227.759 60.7042 227.825 60.8353 227.891 60.9992C228.187 61.7204 228.647 61.9827 229.468 61.9499C231.571 61.8516 233.706 61.9169 235.809 61.8843C236.203 61.9499 236.499 61.9169 236.893 61.9169ZM288.441 90.5024H288.309C288.047 91.0269 287.784 91.5842 287.488 92.0759C286.601 93.5839 285.254 94.3703 283.513 94.4034C282.593 94.4034 281.673 94.305 280.786 94.1084C276.778 93.1577 272.934 91.6497 269.221 89.8796C266.856 88.7322 264.523 87.5521 262.157 86.4047C261.895 86.2736 261.632 86.175 261.336 86.0769C261.303 86.208 261.27 86.3064 261.303 86.4047C261.369 89.0272 261.435 91.6497 261.5 94.2723C261.5 94.5673 261.566 94.8623 261.566 95.1574C261.599 95.8458 261.993 96.2391 262.617 96.4358C262.88 96.5014 263.143 96.5997 263.406 96.5997L267.348 96.6981C268.86 96.7309 270.404 96.6653 271.915 96.7309C275.89 96.9931 279.833 97.2226 283.808 96.9276C285.09 96.8292 286.338 96.567 287.619 96.3375C288.145 96.2391 288.506 95.9441 288.506 95.3866C288.441 93.7478 288.441 92.1415 288.441 90.5024ZM273.295 50.3124C274.051 49.0342 274.741 47.854 275.365 46.6411C275.529 46.3133 275.562 45.8869 275.562 45.5263C275.66 43.5597 275.726 41.5928 275.792 39.6259C275.825 39.0686 275.759 38.5114 275.694 37.9541C275.66 37.5935 275.726 37.2985 276.055 37.1346C276.383 36.9379 276.745 36.8067 277.106 36.61C278.223 35.9544 278.65 34.9382 278.584 33.6597C278.552 33.2664 278.387 32.9713 278.026 32.8074C277.664 32.6107 277.435 32.8402 277.139 33.0041C276.317 33.4958 275.66 34.1514 275.004 34.8726C274.773 35.1021 274.51 35.2985 274.248 35.5283C273.985 35.7577 273.623 35.8889 273.361 35.5938C273.196 35.3971 273.131 35.0693 273.163 34.8071C273.229 34.3154 273.426 33.8236 273.492 33.3319C273.591 32.7091 273.525 32.1518 273.098 31.5617C272.736 31.0372 272.605 30.3816 272.375 29.7588C272.277 29.5293 272.244 29.267 272.211 29.0048C269.484 28.6114 266.79 28.2508 264.063 27.8574C263.899 28.3164 263.735 28.7097 263.636 29.1031C262.88 31.9223 262.617 34.7743 262.979 37.6916C263.045 38.3147 263.242 38.9047 263.472 39.4948C263.997 40.8388 265.016 41.4617 266.462 41.4945C268.038 41.5272 269.517 41.0027 270.995 40.511C271.258 40.4124 271.521 40.2488 271.751 40.2816C271.981 40.2816 272.277 40.4782 272.375 40.6422C272.474 40.7733 272.375 41.1008 272.244 41.265C272.112 41.4286 271.849 41.5272 271.652 41.6256C271.225 41.7892 270.765 41.9534 270.207 42.1501C270.141 43.658 270.042 45.166 269.977 46.6739C269.977 46.8378 270.075 47.0345 270.174 47.1329C271.225 48.1819 272.244 49.1981 273.295 50.3124ZM256.408 72.9971C256.277 72.5382 256.211 72.2432 256.112 71.9481C255.389 69.4567 254.667 66.9654 253.944 64.474C253.615 63.3266 253.451 63.1955 252.268 63.1955C249.772 63.1955 247.242 63.2283 244.745 63.2283C239.554 63.2283 234.363 63.2611 229.14 63.2611C227.891 63.2611 227.037 64.2773 227.332 65.3919C228.811 71.1286 230.322 76.8653 231.8 82.602C232.063 83.5527 232.687 84.0444 233.641 84.1755C234.232 84.2411 234.823 84.3067 235.414 84.2739C242.938 84.1755 250.462 84.0772 257.985 84.0116C258.248 84.0116 258.478 83.9788 258.741 83.9788C258.248 83.651 257.722 83.5199 257.196 83.3232C255.718 82.7659 254.24 82.2087 252.827 81.553C251.94 81.1269 251.25 80.4713 251.48 79.2911C251.217 79.16 251.02 79.0617 250.79 78.9633C250.363 78.7338 249.87 78.5044 249.837 77.9796C249.804 77.6193 250.035 77.2587 250.166 76.8653C249.837 76.6686 249.443 76.4719 249.114 76.275C248.753 76.0458 248.457 75.718 248.556 75.259C248.655 74.8001 249.016 74.6034 249.476 74.5378C249.804 74.4723 250.1 74.4395 250.462 74.3739C249.903 73.2922 250.166 72.8004 251.348 72.7021C252.203 72.6365 253.09 72.7021 253.944 72.7349C254.667 72.7677 255.488 72.8988 256.408 72.9971ZM276.416 47.6573C276.186 47.9851 276.055 48.1818 275.923 48.4113C275.365 49.3947 274.839 50.411 274.28 51.3944C273.82 52.1811 273.361 52.2467 272.736 51.5911C271.816 50.6404 270.93 49.6898 270.009 48.7719C269.812 48.5752 269.615 48.3785 269.352 48.149C268.991 48.7719 268.728 49.362 268.531 50.0831C269.517 49.7225 270.009 50.2143 270.469 50.8043C270.765 51.1977 270.732 51.5583 270.469 51.755C270.174 51.9845 269.845 51.9517 269.583 51.6892C269.451 51.5911 269.319 51.46 269.122 51.2961C268.662 51.755 268.203 52.1811 267.775 52.6401C267.151 53.2629 266.856 53.3938 266.494 53.1318C266.001 52.7384 266.264 52.2795 266.428 51.8206C266.724 51.0007 267.053 50.1487 267.348 49.3292C267.25 49.2961 267.184 49.2308 267.151 49.2308C264.786 49.6239 262.453 49.9845 260.153 50.706C258.346 51.2961 257.065 52.4434 256.244 54.148C255.225 56.3116 254.24 58.4752 253.221 60.6387C253.057 60.9993 252.925 61.3927 252.761 61.7861C252.893 61.8516 252.958 61.9169 253.057 61.9169C254.305 62.1139 254.929 62.9334 255.225 64.1135C255.784 66.146 256.408 68.1784 256.967 70.2109C257.164 70.9648 257.459 71.4566 258.248 71.7516C258.971 72.0138 259.661 72.44 260.449 72.8659C260.449 72.3417 260.482 71.9811 260.449 71.5877C260.318 69.1946 260.153 66.7688 260.022 64.3758C259.989 64.0152 259.956 63.6546 260.055 63.3268C260.12 63.1301 260.383 62.9006 260.613 62.8351C260.942 62.7367 261.172 62.999 261.237 63.3268C261.27 63.5235 261.27 63.7529 261.303 63.9496C261.467 66.9983 261.632 70.0797 261.796 73.1284C261.829 73.7185 262.782 74.5052 263.34 74.3413C263.8 74.2099 264.161 74.3085 264.556 74.4397C269.122 75.8165 273.689 77.1933 278.256 78.5701C278.453 78.6357 278.65 78.6357 278.847 78.7012C278.946 78.3734 279.077 78.0784 279.143 77.8161C280.72 72.9317 282.264 68.0473 283.841 63.1957C283.94 62.9006 284.038 62.5728 284.169 62.2775C284.301 61.9828 284.597 61.8516 284.925 61.95C285.254 62.0483 285.385 62.3106 285.352 62.6384C285.32 62.9006 285.221 63.1629 285.155 63.4251C283.545 68.4407 281.936 73.4562 280.325 78.4718C280.194 78.8324 280.095 79.1602 280.194 79.5863C280.293 80.0453 279.931 80.3728 279.438 80.3075C279.274 80.2747 279.077 80.2092 278.913 80.1764C277.336 79.6844 275.726 79.1602 274.149 78.6684C272.736 78.2095 271.291 77.7834 269.878 77.3244C269.418 77.1933 269.057 77.2261 268.794 77.6194C268.367 78.2095 267.907 78.7668 267.578 79.3569C266.954 80.4714 266.461 81.6515 266.593 82.9956C266.625 83.5201 266.395 83.8479 266.034 83.8807C265.64 83.9135 265.344 83.6184 265.311 83.0284C265.278 82.6022 265.278 82.1433 265.344 81.6843C265.607 80.1108 266.297 78.7668 267.217 77.4883C267.381 77.2588 267.546 77.0294 267.775 76.7016C266.724 76.4065 265.738 76.1771 264.786 75.8165C263.866 75.4559 263.241 75.7509 262.65 76.3738C262.42 76.636 262.19 76.931 261.993 77.2261C260.843 78.996 260.252 80.9304 260.186 83.0284C260.153 83.7495 260.383 84.1429 261.073 84.4705C263.11 85.3886 265.147 86.3065 267.118 87.3555C270.174 88.9618 273.262 90.4042 276.514 91.4859C278.354 92.1088 280.227 92.6658 282.1 93.0594C284.432 93.5184 285.911 92.7316 286.798 90.6664C287.028 90.1419 287.258 89.6174 287.422 89.0929C288.309 86.2409 289.196 83.4217 290.017 80.537C291.594 74.8983 293.303 69.3258 294.485 63.6218C294.913 61.5891 295.241 59.5897 295.143 57.4914C295.077 56.0821 294.551 54.9348 293.303 54.2136C292.251 53.5907 291.2 52.9023 290.083 52.4762C286.338 51.0666 282.593 49.7225 278.814 48.3785C278.617 48.313 278.387 48.313 278.059 48.2474C278.486 49.362 278.847 50.3454 279.241 51.3616C279.406 51.755 279.373 52.1156 279.011 52.4106C278.65 52.6729 278.321 52.5417 278.026 52.3451C277.599 52.0828 277.204 51.7878 276.745 51.46C276.613 51.6239 276.514 51.7878 276.416 51.9189C276.219 52.1811 275.956 52.3123 275.627 52.1156C275.332 51.9517 275.266 51.6892 275.332 51.3616C275.529 50.3454 276.12 49.952 277.139 50.1815C277.204 50.1815 277.303 50.1815 277.435 50.1487C277.04 49.2961 276.745 48.5424 276.416 47.6573ZM227.267 62.4089C226.446 60.8026 225.657 59.2291 224.77 57.6556C224.409 57.0327 224.343 56.5082 224.605 55.8854C224.77 55.5576 224.803 55.2625 224.605 54.9019C223.916 53.5907 223.291 52.2139 222.667 50.8698C222.503 50.5092 222.372 50.1814 221.879 50.1486C221.353 50.1159 220.959 49.7553 220.663 49.3291C219.94 48.3129 219.579 47.2311 219.809 45.9526C219.908 45.3626 220.104 44.8709 220.598 44.51C220.762 44.3791 220.893 44.2152 220.992 44.0513C221.32 43.5268 221.649 43.0351 222.076 42.3795C222.01 42.2483 221.813 41.9533 221.649 41.6255C221.057 40.4782 220.696 39.3308 220.86 38.0193C220.893 37.8229 220.926 37.5934 220.992 37.4295C221.156 36.9706 221.419 36.61 221.944 36.5772C222.437 36.5444 222.733 36.8394 222.93 37.2328C224.047 39.3636 225.69 41.1007 227.365 42.8054L227.431 42.8712C228.844 44.0185 229.534 45.5593 229.895 47.2967C230.224 48.8046 230.651 50.2798 231.045 51.8533C231.998 51.8205 232.425 52.4433 232.852 53.1317C234.527 55.7868 236.269 58.4423 237.977 61.0976C238.338 61.6877 238.766 61.9169 239.489 61.9169C243.135 61.8516 246.782 61.8844 250.429 61.8516H251.25C251.414 61.5238 251.546 61.2287 251.677 60.9337C252.827 58.4095 253.944 55.8854 255.127 53.3937C256.047 51.4599 257.558 50.1159 259.628 49.4275C261.632 48.7718 263.669 48.4112 265.738 48.0506C266.1 47.9851 266.462 47.9523 266.79 47.854C267.217 47.7556 267.808 47.7556 268.038 47.4934C268.465 47.0016 268.827 46.4116 268.794 45.6576C268.761 44.9036 268.893 44.1822 268.926 43.4285V42.5434C268.104 42.6089 267.348 42.6745 266.56 42.6745C264.457 42.7073 263.012 41.6911 262.289 39.757C261.927 38.7735 261.731 37.6915 261.665 36.61C261.467 33.7908 261.796 31.0371 262.585 28.3163C264.194 22.7435 271.291 20.8749 275.562 24.1203C277.27 25.3985 278.551 26.9395 278.88 29.103C278.979 29.7587 278.979 30.4143 278.946 31.0699C278.946 31.4633 278.979 31.7255 279.274 32.0206C279.767 32.4467 279.964 33.0696 279.964 33.7252C279.964 35.3971 279.373 36.7739 277.862 37.6262C277.303 37.954 277.172 38.3146 277.139 38.9047C277.106 40.2815 276.974 41.6255 276.909 43.0023C276.876 43.6907 276.876 44.3791 276.909 45.0675C276.942 46.1165 277.237 46.4444 278.223 46.805C280.326 47.5261 282.461 48.1818 284.564 48.9685C286.732 49.7553 288.868 50.542 290.97 51.4599C292.087 51.9516 293.139 52.6072 294.157 53.2629C295.537 54.148 296.194 55.492 296.293 57.0983C296.457 59.4258 296.095 61.6877 295.636 63.9168C294.387 69.8502 292.58 75.6197 291.003 81.4548C290.675 82.6677 290.379 83.8806 289.952 85.0607C289.59 86.1097 289.558 87.1587 289.59 88.2405C289.656 90.5024 289.689 92.7644 289.656 95.0263C289.623 96.6981 289.163 97.321 287.553 97.616C286.042 97.911 284.498 98.1733 282.954 98.2388C279.537 98.4355 276.088 98.2716 272.671 98.0421C270.831 97.911 268.958 97.9766 267.118 97.9438C265.673 97.911 264.26 97.8782 262.847 97.7796C262.421 97.7471 261.96 97.5832 261.566 97.3865C260.81 97.0259 260.318 96.4686 260.219 95.6163C260.153 95.1246 260.088 94.6001 260.088 94.1084C260.022 91.7481 259.989 89.3879 259.923 87.0604C259.923 86.6015 259.825 86.1097 259.759 85.6508C259.694 85.2574 259.529 85.0935 259.069 85.2246C258.773 85.323 258.412 85.323 258.084 85.323C250.396 85.4213 242.741 85.5197 235.053 85.618C234.396 85.618 233.739 85.5852 233.082 85.4541C231.702 85.1919 230.782 84.3723 230.421 82.9955C229.468 79.3568 228.548 75.7181 227.595 72.1121C227.069 70.0797 226.61 68.0472 225.985 66.0804C225.624 64.8675 225.952 63.9168 226.642 62.9989C226.938 62.8022 227.069 62.6383 227.267 62.4089Z" fill="#43444B"/>
<path fill-rule="evenodd" clip-rule="evenodd" d="M283.512 203.663C285.549 201.959 287.553 200.32 289.558 198.648C289.262 198.058 289.032 197.566 288.769 197.074C288.671 196.878 288.572 196.714 288.506 196.517C288.408 196.156 288.441 195.861 288.802 195.665C289.098 195.501 289.525 195.632 289.689 196.025C290.379 197.763 291.693 199.14 292.712 200.647C292.876 200.877 293.007 201.106 293.106 201.336C293.401 201.893 293.303 202.45 292.908 202.91C292.646 203.237 292.317 203.5 291.989 203.762C289.032 206.22 286.075 208.679 283.085 211.105C282.363 211.695 281.64 212.252 280.917 212.81C280.621 213.039 280.26 213.235 279.898 213.367C279.11 213.662 278.519 213.203 278.617 212.35C278.683 211.891 278.814 211.4 279.011 210.973C279.898 208.875 280.818 206.777 281.771 204.679C282.034 204.122 282.133 203.63 281.804 203.073C281.607 202.745 281.475 202.385 281.344 202.024C281.114 201.467 281.18 201.106 281.541 200.91C281.903 200.713 282.231 200.877 282.494 201.434C282.757 201.926 282.954 202.483 283.184 202.975C283.282 203.205 283.381 203.401 283.512 203.663Z" fill="#43444B"/>
<path fill-rule="evenodd" clip-rule="evenodd" d="M261.402 208.187H268.958C269.024 207.761 269.089 207.269 269.123 206.778C269.188 206.352 269.188 205.958 269.287 205.532C269.352 205.204 269.583 205.008 269.944 205.04C270.305 205.073 270.47 205.303 270.502 205.63C270.535 205.794 270.502 205.991 270.502 206.155C270.338 207.991 270.174 209.826 270.009 211.662C269.911 212.58 269.615 212.941 268.695 213.072C267.578 213.203 266.429 213.334 265.311 213.4C261.402 213.563 257.492 213.662 253.582 213.793C253.287 213.793 252.991 213.76 252.696 213.662C252.006 213.432 251.907 212.843 252.433 212.351C252.63 212.187 252.86 212.023 253.09 211.892C254.272 211.203 255.488 210.58 256.671 209.892C257.656 209.302 258.642 208.646 259.595 207.991C260.055 207.696 260.285 207.269 260.318 206.712C260.383 206.188 260.482 205.663 260.581 205.139C260.712 204.483 261.041 204.254 261.435 204.352C261.829 204.45 261.96 204.778 261.829 205.401C261.731 206.286 261.566 207.171 261.402 208.187Z" fill="#43444B"/>
<path fill-rule="evenodd" clip-rule="evenodd" d="M264.326 77.0616C264.852 77.0944 265.18 77.455 265.147 77.9795C265.114 78.504 264.687 78.9302 264.162 78.8974C263.669 78.8646 263.307 78.4713 263.34 77.947C263.373 77.3895 263.767 77.0289 264.326 77.0616Z" fill="#43444B"/>
<path fill-rule="evenodd" clip-rule="evenodd" d="M251.973 65.4575H250.823H229.435C229.139 65.4575 228.811 65.4903 228.548 65.392C228.351 65.3267 228.088 65.0314 228.088 64.8347C228.088 64.6383 228.318 64.3758 228.482 64.2446C228.614 64.1463 228.877 64.1791 229.106 64.1791H252.104C252.926 64.1791 252.991 64.2446 253.221 65.0314C253.813 67.0638 254.371 69.0963 254.93 71.129C254.995 71.3582 255.094 71.6204 255.028 71.8174C254.962 72.0466 254.765 72.276 254.535 72.3744C254.371 72.4399 254.075 72.276 253.944 72.1121C253.78 71.9482 253.747 71.686 253.681 71.4568C253.221 69.7847 252.728 68.1456 252.268 66.4738C252.17 66.1787 252.071 65.8837 251.973 65.4575Z" fill="#43444B"/>
<path fill-rule="evenodd" clip-rule="evenodd" d="M242.708 74.5702C242.642 73.5867 242.379 72.7019 241.689 72.0132C241.032 71.3248 240.244 71.4562 239.817 72.3083C239.39 73.1281 239.39 73.9801 239.685 74.8327C239.85 75.3569 240.145 75.8817 240.507 76.2748C241.098 76.9307 241.854 76.7996 242.248 76.0125C242.478 75.5539 242.544 75.0291 242.708 74.5702ZM238.174 73.3904C238.24 73.0626 238.305 72.5378 238.503 72.0463C239.291 69.9811 241.459 69.6202 242.872 71.3579C243.694 72.3741 244.055 73.554 243.891 74.8655C243.825 75.4884 243.661 76.1768 243.332 76.701C242.544 78.1106 240.934 78.3729 239.685 77.2911C238.568 76.3404 238.207 75.0292 238.174 73.3904Z" fill="#43444B"/>
<path fill-rule="evenodd" clip-rule="evenodd" d="M267.611 38.4128C268.334 38.8718 268.695 38.7734 269.155 37.9869C268.63 38.1506 268.17 38.282 267.611 38.4128ZM268.203 40.0522C267.447 40.0522 266.921 39.7897 266.593 39.2652C266.396 38.9705 266.231 38.6427 266.067 38.3148C265.805 37.7573 265.936 37.4295 266.56 37.2658C267.546 37.0033 268.499 36.7411 269.484 36.5116C270.108 36.3477 270.437 36.6102 270.568 37.2331C270.897 38.6427 269.648 40.0522 268.203 40.0522Z" fill="#43444B"/>
<path fill-rule="evenodd" clip-rule="evenodd" d="M266.954 34.5123C267.315 34.6431 267.579 34.6759 267.71 34.8401C267.874 35.0037 268.038 35.2987 268.005 35.4957C267.973 35.6921 267.644 35.9546 267.447 35.9219C266.921 35.8891 266.396 35.7907 265.87 35.6266C265.41 35.4629 265.246 35.0695 265.476 34.6103C265.968 33.5616 266.494 32.5454 267.085 31.5289C267.348 31.0702 267.743 31.0047 268.071 31.2339C268.4 31.4636 268.432 31.7586 268.17 32.2501C267.775 33.0043 267.381 33.7255 266.954 34.5123Z" fill="#43444B"/>
<path fill-rule="evenodd" clip-rule="evenodd" d="M265.344 32.1845C265.344 32.7418 265.114 33.1352 264.753 33.2335C264.391 33.3316 264.096 33.2335 263.899 32.9382C263.636 32.5451 263.636 31.7256 263.899 31.4306C264.162 31.1356 264.523 31.0372 264.851 31.2008C265.311 31.365 265.311 31.824 265.344 32.1845Z" fill="#43444B"/>
<path fill-rule="evenodd" clip-rule="evenodd" d="M271.455 33.0038C271.389 33.1021 271.291 33.4299 271.094 33.6594C270.831 33.9544 270.404 33.9544 270.108 33.725C269.55 33.2988 269.681 32.1187 270.338 31.8239C270.963 31.5614 271.422 31.9548 271.455 33.0038Z" fill="#43444B"/>
<path fill-rule="evenodd" clip-rule="evenodd" d="M278.059 34.1179C278.092 34.5113 277.369 35.3636 277.008 35.4292C276.58 35.4947 276.186 35.1341 276.35 34.7408C276.515 34.3474 276.81 33.921 277.172 33.659C277.533 33.364 278.026 33.6918 278.059 34.1179Z" fill="#43444B"/>
<path fill-rule="evenodd" clip-rule="evenodd" d="M227.497 55.7871C227.923 55.7871 228.219 56.1149 228.187 56.5411C228.154 56.9344 227.825 57.2623 227.431 57.2623C227.037 57.2623 226.675 56.9344 226.675 56.5411C226.675 56.1149 227.037 55.7871 227.497 55.7871Z" fill="#43444B"/>
<path fill-rule="evenodd" clip-rule="evenodd" d="M32.5569 169.965C33.0494 169.866 33.3779 169.833 33.7065 169.735C37.9778 168.719 41.4931 166.49 44.2854 163.113C47.7022 158.983 49.6737 154.295 49.5752 148.853C49.5423 146.755 49.1478 144.723 48.1953 142.822C47.7022 141.871 47.078 141.051 46.2241 140.429C45.1071 139.642 43.8915 139.478 42.6759 140.035C41.9528 140.363 41.2629 140.822 40.6389 141.314C39.2259 142.428 38.0435 143.772 37.0904 145.313C33.1482 151.541 31.2424 158.294 31.9324 165.703C31.9981 167.113 32.3266 168.489 32.5569 169.965ZM31.6695 171.472C30.9139 171.538 30.2568 171.604 29.5669 171.636C22.2079 171.997 15.8014 169.571 10.0846 165.047C5.78098 161.638 2.72557 157.344 1.14831 152.066C0.162695 148.821 -0.0998642 145.51 0.0315512 142.166C0.129841 139.773 0.425797 137.413 1.21402 135.151C1.5097 134.266 1.90395 133.446 2.29847 132.627C2.46274 132.266 2.75842 131.938 3.05411 131.643C3.4155 131.315 3.87518 131.151 4.36826 131.315C4.6968 131.414 4.95936 131.61 4.92651 132.004C4.89365 132.364 4.66367 132.561 4.33541 132.528C3.77689 132.528 3.54664 132.922 3.34979 133.315C2.59388 134.725 2.10134 136.233 1.83824 137.773C1.01717 142.395 1.05002 146.985 2.33132 151.509C3.80975 156.688 6.86515 160.851 11.0702 164.162C15.0129 167.276 19.4153 169.342 24.4088 170.096C26.5775 170.423 28.7458 170.489 30.9139 170.194C31.0127 170.194 31.1442 170.128 31.2753 170.096C31.1113 169.079 30.9139 168.096 30.7499 167.08C30.0271 162.458 30.4871 157.934 31.8341 153.476C32.9183 149.902 34.4293 146.493 36.729 143.477C37.6821 142.199 38.7334 141.019 40.0147 140.101C40.6718 139.609 41.3946 139.183 42.1502 138.822C43.7929 138.101 45.3696 138.331 46.8154 139.314C47.8668 140.002 48.6224 140.953 49.2138 142.068C50.1994 143.903 50.6922 145.903 50.7905 147.968C51.1519 154.361 48.8852 159.802 44.6797 164.556C41.6902 167.932 37.9449 170.128 33.5096 171.079C33.3779 171.112 33.214 171.145 32.9508 171.243C33.0494 171.636 33.1482 171.997 33.2797 172.325C34.6592 176.16 36.729 179.569 39.4888 182.585C41.23 184.519 43.1358 186.257 45.271 187.765C51.8418 192.42 58.9057 195.927 66.856 197.599C71.8829 198.648 76.9424 199.009 82.0676 198.878C91.2996 198.648 99.9401 196.157 108.384 192.616C119.718 187.896 130.363 181.93 140.548 175.078C148.498 169.735 156.219 164.064 163.775 158.163C176.424 148.296 189.04 138.363 201.656 128.431C202.017 128.168 202.345 127.873 202.707 127.611C203.101 127.349 203.528 127.447 203.725 127.808C203.923 128.103 203.791 128.463 203.462 128.726C192.325 137.445 181.22 146.198 170.083 154.918C161.541 161.606 152.901 168.194 143.931 174.357C135.028 180.455 125.829 186.027 116.071 190.617C110.059 193.436 103.981 195.993 97.5747 197.796C90.4451 199.796 83.1518 200.517 75.7594 200.091C69.6486 199.73 63.6695 198.615 57.9855 196.288C52.3349 193.96 47.0123 191.043 42.2813 187.109C37.7804 183.307 34.2653 178.783 32.1955 173.243C32.0641 172.685 31.8669 172.095 31.6695 171.472Z" fill="#43444B"/>
<path fill-rule="evenodd" clip-rule="evenodd" d="M209.738 126.791C209.803 126.824 209.869 126.89 209.935 126.922C210.46 126.365 211.019 125.808 211.61 125.185C211.249 125.021 210.953 124.857 210.592 124.693C210.263 125.447 210 126.103 209.738 126.791ZM216.177 113.744L216.045 113.613C213.187 116.367 210.362 119.121 207.503 121.874C207.274 122.103 207.208 122.3 207.306 122.595C207.372 122.792 207.405 122.989 207.438 123.218C207.701 124.398 207.964 125.578 208.226 126.922C208.423 126.463 208.555 126.168 208.653 125.873C209.113 124.529 209.803 123.251 210.592 122.071C212.3 119.579 213.943 117.055 215.618 114.564C215.848 114.301 216.013 114.007 216.177 113.744ZM206.616 120.956C206.978 120.629 207.241 120.366 207.471 120.137C211.512 116.203 215.553 112.302 219.627 108.368C219.823 108.171 219.988 107.942 220.251 107.844C220.481 107.778 220.809 107.778 220.974 107.877C221.138 108.008 221.204 108.368 221.138 108.565C221.105 108.794 220.875 109.024 220.744 109.254C217.754 113.712 214.797 118.17 211.807 122.661C211.643 122.923 211.479 123.185 211.249 123.546C212.892 124.398 214.501 125.218 216.177 126.07C218.345 119.088 220.514 112.236 222.649 105.352C222.616 105.319 222.55 105.287 222.518 105.221C215.783 109.155 209.015 113.089 202.181 117.088C203.725 118.432 205.138 119.678 206.616 120.956ZM212.924 125.873C211.775 126.922 210.69 127.906 209.606 128.889C209.31 129.152 209.015 129.381 208.653 129.578C207.898 130.004 207.405 129.775 207.208 128.922C207.011 128.004 206.879 127.054 206.715 126.103C206.485 124.89 206.222 123.644 205.927 122.431C205.861 122.103 205.598 121.808 205.368 121.579C204.021 120.366 202.608 119.186 201.261 118.006C200.177 117.055 200.21 116.793 201.426 116.072C208.522 111.942 215.586 107.811 222.682 103.648C222.945 103.484 223.175 103.32 223.471 103.222C224.095 102.959 224.555 103.32 224.456 104.008C224.423 104.27 224.325 104.533 224.259 104.795C221.992 112.073 219.725 119.35 217.425 126.628C217.097 127.644 216.834 127.775 215.848 127.349C214.863 126.857 213.91 126.365 212.924 125.873Z" fill="#43444B"/>
<path fill-rule="evenodd" clip-rule="evenodd" d="M136.981 212.392C100.842 212.457 64.7025 212.49 28.5633 212.556C28.2347 212.556 27.9062 212.556 27.5777 212.523C27.2163 212.49 26.9534 212.293 26.9534 211.9C26.9534 211.507 27.2491 211.31 27.5777 211.277C27.9062 211.245 28.2347 211.245 28.5633 211.245C48.2099 211.212 67.8565 211.212 87.5028 211.179C140.168 211.113 192.865 211.015 245.53 210.949C245.826 210.949 246.122 210.949 246.417 210.982C246.779 211.015 247.041 211.179 247.074 211.572C247.107 211.933 246.844 212.195 246.384 212.261C246.056 212.293 245.727 212.293 245.399 212.293C216.356 212.326 187.28 212.359 158.237 212.392H136.915C136.981 212.359 136.981 212.392 136.981 212.392Z" fill="#43444B"/>
<path fill-rule="evenodd" clip-rule="evenodd" d="M22.527 56.8745C23.0858 56.7436 23.4469 56.6778 23.8083 56.5467C24.8597 56.088 25.681 55.3668 25.8127 54.1536C25.8781 53.498 25.6482 53.0065 25.2539 52.8751C24.7614 52.7115 24.3997 53.0065 24.0712 53.3016C23.1184 54.2192 22.7573 55.3996 22.527 56.8745ZM21.1143 57.8578C18.486 56.6449 17.2379 54.4486 16.8762 51.8588C16.0877 46.3516 17.5004 41.4019 20.8844 37.0092C21.2786 36.4844 21.7386 35.9929 22.1985 35.5668C22.4942 35.3045 22.8885 35.1076 23.2827 34.9765C23.6112 34.8453 23.9398 34.9765 24.1043 35.337C24.2683 35.6976 24.1043 35.9929 23.7429 36.1238C22.987 36.4188 22.5271 37.0092 22.0674 37.5662C19.0446 41.2705 17.7633 45.5323 17.9278 50.2856C17.9932 51.9244 18.4203 53.4651 19.3731 54.8419C19.833 55.4976 20.359 56.0879 21.2129 56.4485C21.3115 56.0879 21.41 55.7273 21.4757 55.3995C21.7386 54.4486 22.1 53.5307 22.7573 52.7767C23.0199 52.4817 23.3484 52.1539 23.677 51.9244C25.1228 50.974 26.7652 51.7277 27.028 53.4323C27.1926 54.5469 26.8966 55.5631 26.1413 56.4157C25.2868 57.3661 24.2355 57.9562 22.987 58.0875C22.8228 58.1203 22.6585 58.1203 22.4285 58.1531C22.3299 59.4313 22.5271 60.6442 22.8228 61.7916C23.5455 64.611 24.3669 67.43 25.1228 70.2491C25.5168 71.6915 25.911 73.1342 26.2067 74.5765C26.6667 76.7398 26.1741 78.7723 25.2211 80.7392C25.0897 81.0345 24.7614 81.2967 24.4657 81.4276C24.3012 81.5259 23.9069 81.3951 23.7758 81.2309C23.6441 81.0672 23.6112 80.6739 23.7429 80.5097C25.1554 78.4773 25.3525 76.2484 24.7614 73.9534C24.1369 71.5604 23.4798 69.1674 22.8228 66.8071C22.0014 63.8898 21.0815 60.972 21.1143 57.8578Z" fill="#43444B"/>
<path fill-rule="evenodd" clip-rule="evenodd" d="M299.443 104.508C299.378 103.426 299.345 102.377 299.246 101.296C299.181 100.541 299.082 99.7545 298.622 99.0989C298.425 98.8039 298.425 98.4761 298.721 98.2141C298.984 97.9843 299.443 98.0171 299.674 98.3777C299.969 98.8367 300.232 99.3284 300.298 99.8201C300.495 100.902 300.626 101.984 300.659 103.098C300.856 106.934 300.199 110.703 299.148 114.375C299.016 114.867 298.885 115.358 298.721 115.817C298.589 116.211 298.326 116.473 297.932 116.342C297.538 116.244 297.374 115.883 297.439 115.49C297.505 115.162 297.636 114.867 297.735 114.572C298.688 111.294 299.443 107.983 299.443 104.508Z" fill="#43444B"/>
<mask id="mask0_74_4008" style="mask-type:luminance" maskUnits="userSpaceOnUse" x="290" y="210" width="17" height="2">
<path fill-rule="evenodd" clip-rule="evenodd" d="M290.463 210.195H306.837V211.637H290.463V210.195Z" fill="white"/>
</mask>
<g mask="url(#mask0_74_4008)">
<path fill-rule="evenodd" clip-rule="evenodd" d="M298.721 211.507H291.723C291.46 211.507 291.164 211.539 290.934 211.408C290.737 211.31 290.507 211.048 290.474 210.851C290.409 210.523 290.638 210.293 290.967 210.228C291.164 210.195 291.394 210.195 291.591 210.195C296.289 210.228 300.955 210.293 305.653 210.326C306.474 210.326 306.836 210.523 306.836 210.982C306.868 211.441 306.507 211.637 305.587 211.637H298.688C298.721 211.605 298.721 211.572 298.721 211.507Z" fill="#43444B"/>
</g>
<mask id="mask1_74_4008" style="mask-type:luminance" maskUnits="userSpaceOnUse" x="212" y="0" width="12" height="4">
<path fill-rule="evenodd" clip-rule="evenodd" d="M212.516 0.0585938H223.292V3.76494H212.516V0.0585938Z" fill="white"/>
</mask>
<g mask="url(#mask1_74_4008)">
<path fill-rule="evenodd" clip-rule="evenodd" d="M218.13 1.83754C217.703 2.32899 217.342 2.7882 216.914 3.21436C216.389 3.80442 216.028 3.80442 215.502 3.24714C215.206 2.95211 214.943 2.65681 214.615 2.29621C214.286 2.72264 214.023 3.05045 213.761 3.41105C213.432 3.80442 213.038 3.86999 212.742 3.60774C212.414 3.31243 212.479 2.98462 212.709 2.65681C213.104 2.09979 213.498 1.54251 213.958 1.01801C214.385 0.49351 214.746 0.526292 215.239 1.01801C215.403 1.18192 215.568 1.37861 215.699 1.54251C215.83 1.70642 215.995 1.83754 216.192 2.06701C216.586 1.64059 216.947 1.2147 217.309 0.821324C217.966 0.100135 218.229 0.100135 218.886 0.788542C219.083 1.01801 219.28 1.2147 219.576 1.50973C219.937 1.14914 220.298 0.788542 220.627 0.460729C221.186 -0.096824 221.514 -0.0640427 222.039 0.49351C222.401 0.854105 222.729 1.24748 223.058 1.64059C223.386 2.03423 223.354 2.42761 223.058 2.65681C222.697 2.91933 222.401 2.75542 222.105 2.49317C221.974 2.36205 221.875 2.23092 221.744 2.09979C221.613 1.9684 221.514 1.83754 221.35 1.6078C220.923 2.03423 220.594 2.39483 220.233 2.72264C219.674 3.24714 219.411 3.24714 218.886 2.72264C218.656 2.39483 218.426 2.13258 218.13 1.83754Z" fill="#43444B"/>
</g>
<path fill-rule="evenodd" clip-rule="evenodd" d="M23.1513 86.8692C22.6257 87.2623 22.4285 87.7543 22.5599 88.3441C22.6588 88.7705 22.9542 88.9016 23.2827 88.7047C24.1043 88.1804 24.1043 87.4265 23.1513 86.8692ZM23.2827 90.1145C21.9357 90.1145 21.0489 89.0325 21.2129 87.8526C21.2789 87.492 21.3774 87.0986 21.5743 86.7708C22.1985 85.5249 22.9213 85.2298 24.0055 85.8202C25.2868 86.5086 25.6482 87.5573 24.9911 88.7047C24.7614 89.0983 24.4657 89.4589 24.1369 89.7209C23.8412 89.9504 23.447 90.0487 23.2827 90.1145Z" fill="#43444B"/>
<path fill-rule="evenodd" clip-rule="evenodd" d="M286.4 19.7684C285.71 19.8012 285.448 19.3425 285.678 18.8505C285.941 18.3263 286.236 17.8015 286.532 17.2773C287.255 16.0313 288.01 14.7529 288.766 13.5074C288.864 13.3433 288.963 13.1468 289.094 13.081C289.325 12.9827 289.653 12.9171 289.817 13.0154C289.981 13.1141 290.08 13.4416 290.113 13.6711C290.113 13.8352 289.949 14.0317 289.85 14.2286C288.897 15.8677 287.944 17.5393 286.992 19.1783C286.795 19.4406 286.499 19.6375 286.4 19.7684Z" fill="#43444B"/>
<path fill-rule="evenodd" clip-rule="evenodd" d="M293.037 16.1631C292.971 16.2615 292.873 16.491 292.741 16.6546C291.394 18.0972 290.047 19.5068 288.7 20.9164C288.634 21.0148 288.536 21.0801 288.437 21.1459C288.076 21.3754 287.714 21.3426 287.485 21.0476C287.255 20.7523 287.287 20.4903 287.649 20.1297C288.93 18.8184 290.211 17.4744 291.493 16.1631C291.69 15.9662 291.887 15.7042 292.15 15.5403C292.511 15.2453 293.037 15.5075 293.037 16.1631Z" fill="#43444B"/>
<path fill-rule="evenodd" clip-rule="evenodd" d="M302.86 110.836C302.729 111.294 302.597 111.983 302.4 112.638C302.039 113.819 301.644 114.966 301.25 116.113C301.086 116.605 300.79 116.835 300.429 116.736C300.035 116.638 299.838 116.277 300.002 115.72C300.265 114.802 300.626 113.917 300.889 112.999C301.152 112.081 301.349 111.163 301.546 110.245C301.612 109.885 301.743 109.622 302.17 109.59C302.532 109.557 302.794 109.819 302.86 110.278V110.836Z" fill="#43444B"/>
<path fill-rule="evenodd" clip-rule="evenodd" d="M289.62 24.1943C289.16 24.1615 288.897 23.9976 288.832 23.6042C288.766 23.2764 288.963 23.08 289.292 22.9158C290.934 22.1618 292.544 21.4078 294.154 20.6869C294.844 20.3591 295.205 20.4244 295.37 20.8506C295.534 21.2439 295.337 21.5717 294.712 21.8668C293.201 22.588 291.69 23.3092 290.179 23.9976C289.981 24.0634 289.751 24.129 289.62 24.1943Z" fill="#43444B"/>
<path fill-rule="evenodd" clip-rule="evenodd" d="M14.8962 211.736C14.4034 211.736 14.0748 211.507 14.042 211.146C14.0088 210.753 14.2717 210.491 14.8305 210.425C15.7832 210.294 16.7686 210.13 17.7213 209.966C18.2144 209.901 18.5101 209.999 18.5758 210.359C18.6744 210.753 18.477 211.048 18.1156 211.212C18.0173 211.277 17.8859 211.31 17.787 211.31C16.8345 211.441 15.8818 211.573 14.8962 211.736Z" fill="#43444B"/>
</svg>
